0
SECTION
2
HEADER
9
$INSUNITS
70
4
9
$ACADVER
1
AC1014
9
$HANDSEED
5
FFFF
0
ENDSEC
0
SECTION
2
TABLES
0
TABLE
2
VPORT
5
8
100
AcDbSymbolTable
0
ENDTAB
0
TABLE
2
LTYPE
5
5
100
AcDbSymbolTable
0
LTYPE
5
14
100
AcDbSymbolTableRecord
100
AcDbLinetypeTableRecord
2
BYBLOCK
70
0
0
LTYPE
5
15
100
AcDbSymbolTableRecord
100
AcDbLinetypeTableRecord
2
BYLAYER
70
0
0
LTYPE
5
16
100
AcDbSymbolTableRecord
100
AcDbLinetypeTableRecord
2
DASHED
70
0
3
Dashed __ __ __ __ __ __ __ __ __ __ __ __ __ _
72
65
73
2
40
0.75
49
0.5
74
0
49
-0.25
74
0
0
ENDTAB
0
TABLE
2
LAYER
5
2
100
AcDbSymbolTable
70
3
0
LAYER
5
50
100
AcDbSymbolTableRecord
100
AcDbLayerTableRecord
2
1
70
0
62
7
6
DASHED
0
LAYER
5
51
100
AcDbSymbolTableRecord
100
AcDbLayerTableRecord
2
0
70
0
62
7
6
CONTINUOUS
0
ENDTAB
0
TABLE
2
STYLE
5
3
100
AcDbSymbolTable
70
1
0
STYLE
5
11
100
AcDbSymbolTableRecord
100
AcDbTextStyleTableRecord
2
STANDARD
70
0
0
ENDTAB
0
TABLE
2
VIEW
5
6
100
AcDbSymbolTable
70
0
0
ENDTAB
0
TABLE
2
UCS
5
7
100
AcDbSymbolTable
70
0
0
ENDTAB
0
TABLE
2
APPID
5
9
100
AcDbSymbolTable
70
2
0
APPID
5
12
100
AcDbSymbolTableRecord
100
AcDbRegAppTableRecord
2
ACAD
70
0
0
ENDTAB
0
TABLE
2
DIMSTYLE
5
A
100
AcDbSymbolTable
70
1
0
ENDTAB
0
TABLE
2
BLOCK_RECORD
5
1
100
AcDbSymbolTable
70
1
0
BLOCK_RECORD
5
1F
100
AcDbSymbolTableRecord
100
AcDbBlockTableRecord
2
*MODEL_SPACE
0
BLOCK_RECORD
5
1B
100
AcDbSymbolTableRecord
100
AcDbBlockTableRecord
2
*PAPER_SPACE
0
ENDTAB
0
ENDSEC
0
SECTION
2
BLOCKS
0
BLOCK
5
20
100
AcDbEntity
100
AcDbBlockBegin
2
*MODEL_SPACE
0
ENDBLK
5
21
100
AcDbEntity
100
AcDbBlockEnd
0
BLOCK
5
1C
100
AcDbEntity
100
AcDbBlockBegin
2
*PAPER_SPACE
0
ENDBLK
5
1D
100
AcDbEntity
100
AcDbBlockEnd
0
ENDSEC
0
SECTION
2
ENTITIES
0
LWPOLYLINE
5
100
100
AcDbEntity
8
0
100
AcDbPolyline
90
4
70
1
43
0.0
10
385
20
-29.999999999999993
42
0.99999999999999989
10
205
20
-30
10
205
20
-30.500000454485416
10
385
20
-30.500000454485416
0
ARC
5
101
100
AcDbEntity
8
0
100
AcDbCircle
10
295
20
-30
30
0
40
80
210
0
220
-0
230
1
100
AcDbArc
50
0
51
180
0
ARC
5
102
100
AcDbEntity
8
0
100
AcDbCircle
10
295
20
-30
30
0
40
10
210
0
220
-0
230
1
100
AcDbArc
50
0
51
180
0
LWPOLYLINE
5
103
100
AcDbEntity
8
0
100
AcDbPolyline
90
4
70
1
43
0.0
10
354.99999649822712
20
-30.000000598052949
42
0.99999999999999989
10
235.00000350177288
20
-30.000000447034836
10
234.50000000000003
20
-29.999999396963265
42
-0.99999999999999989
10
355.5
20
-30.000000603036735
0
LWPOLYLINE
5
104
100
AcDbEntity
8
0
100
AcDbPolyline
90
4
70
1
43
0.0
10
330
20
-29.999999999999996
42
0.99999999999999989
10
260
20
-30
10
259.5
20
-30.000000000000004
42
-0.99999999999999989
10
330.5
20
-29.999999999999996
0
LWPOLYLINE
5
105
100
AcDbEntity
8
0
100
AcDbPolyline
90
4
70
1
43
0.0
10
342
20
-29.999999999999996
42
0.99999999999999989
10
248
20
-30
10
247.5
20
-29.999999538387993
42
-0.99999999999999989
10
342.5
20
-30.000000461612007
0
LWPOLYLINE
5
106
100
AcDbEntity
8
0
100
AcDbPolyline
90
4
70
1
43
0.0
10
316.99999593198299
20
-30.000000468322014
42
1.0000000105367122
10
273.00000406801701
20
-29.999999999999996
10
272.5
20
-30.00000034228966
42
-1.0000000182501207
10
317.5
20
-30.000000478965774
0
LWPOLYLINE
5
107
100
AcDbEntity
8
0
100
AcDbPolyline
90
2
70
1
43
0.0
10
247.5
20
-30
10
248
20
-30
0
LINE
5
108
100
AcDbEntity
8
0
100
AcDbLine
10
342
20
-29.999999999999996
30
0
11
342.5
21
-30.000000461612007
31
0
0
LINE
5
109
100
AcDbEntity
8
0
100
AcDbLine
10
354.99999649822712
20
-30.000000598052949
30
0
11
355.5
21
-30.000000603036735
31
0
0
LINE
5
110
100
AcDbEntity
8
0
100
AcDbLine
10
330
20
-29.999999999999996
30
0
11
330.5
21
-29.999999999999996
31
0
0
LINE
5
111
100
AcDbEntity
8
0
100
AcDbLine
10
259.5
20
-29.999999999999996
30
0
11
260
21
-30
31
0
0
LINE
5
112
100
AcDbEntity
8
0
100
AcDbLine
10
234.5
20
-30
30
0
11
235.00000350177288
21
-30.000000447034836
31
0
0
ENDSEC
0
SECTION
2
OBJECTS
0
DICTIONARY
5
C
100
AcDbDictionary
3
ACAD_GROUP
350
D
3
ACAD_MLINESTYLE
350
17
0
DICTIONARY
5
D
100
AcDbDictionary
0
DICTIONARY
5
1A
330
C
100
AcDbDictionary
0
DICTIONARY
5
17
100
AcDbDictionary
0
ENDSEC
0
EOF
