0
SECTION
2
HEADER
9
$INSUNITS
70
4
9
$ACADVER
1
AC1014
9
$HANDSEED
5
FFFF
0
ENDSEC
0
SECTION
2
TABLES
0
TABLE
2
VPORT
5
8
100
AcDbSymbolTable
0
ENDTAB
0
TABLE
2
LTYPE
5
5
100
AcDbSymbolTable
0
LTYPE
5
14
100
AcDbSymbolTableRecord
100
AcDbLinetypeTableRecord
2
BYBLOCK
70
0
0
LTYPE
5
15
100
AcDbSymbolTableRecord
100
AcDbLinetypeTableRecord
2
BYLAYER
70
0
0
LTYPE
5
16
100
AcDbSymbolTableRecord
100
AcDbLinetypeTableRecord
2
DASHED
70
0
3
Dashed __ __ __ __ __ __ __ __ __ __ __ __ __ _
72
65
73
2
40
0.75
49
0.5
74
0
49
-0.25
74
0
0
ENDTAB
0
TABLE
2
LAYER
5
2
100
AcDbSymbolTable
70
3
0
LAYER
5
50
100
AcDbSymbolTableRecord
100
AcDbLayerTableRecord
2
1
70
0
62
7
6
DASHED
0
LAYER
5
51
100
AcDbSymbolTableRecord
100
AcDbLayerTableRecord
2
0
70
0
62
7
6
CONTINUOUS
0
ENDTAB
0
TABLE
2
STYLE
5
3
100
AcDbSymbolTable
70
1
0
STYLE
5
11
100
AcDbSymbolTableRecord
100
AcDbTextStyleTableRecord
2
STANDARD
70
0
0
ENDTAB
0
TABLE
2
VIEW
5
6
100
AcDbSymbolTable
70
0
0
ENDTAB
0
TABLE
2
UCS
5
7
100
AcDbSymbolTable
70
0
0
ENDTAB
0
TABLE
2
APPID
5
9
100
AcDbSymbolTable
70
2
0
APPID
5
12
100
AcDbSymbolTableRecord
100
AcDbRegAppTableRecord
2
ACAD
70
0
0
ENDTAB
0
TABLE
2
DIMSTYLE
5
A
100
AcDbSymbolTable
70
1
0
ENDTAB
0
TABLE
2
BLOCK_RECORD
5
1
100
AcDbSymbolTable
70
1
0
BLOCK_RECORD
5
1F
100
AcDbSymbolTableRecord
100
AcDbBlockTableRecord
2
*MODEL_SPACE
0
BLOCK_RECORD
5
1B
100
AcDbSymbolTableRecord
100
AcDbBlockTableRecord
2
*PAPER_SPACE
0
ENDTAB
0
ENDSEC
0
SECTION
2
BLOCKS
0
BLOCK
5
20
100
AcDbEntity
100
AcDbBlockBegin
2
*MODEL_SPACE
0
ENDBLK
5
21
100
AcDbEntity
100
AcDbBlockEnd
0
BLOCK
5
1C
100
AcDbEntity
100
AcDbBlockBegin
2
*PAPER_SPACE
0
ENDBLK
5
1D
100
AcDbEntity
100
AcDbBlockEnd
0
ENDSEC
0
SECTION
2
ENTITIES
0
POINT
5
100
100
AcDbEntity
8
0
100
AcDbPoint
10
294.99881758589282
20
-0.00039410892403779485
30
0
0
POINT
5
101
100
AcDbEntity
8
0
100
AcDbPoint
10
294.99881758589282
20
-0.00039410892403779485
30
0
0
POINT
5
102
100
AcDbEntity
8
0
100
AcDbPoint
10
294.99881758589282
20
-0.00039410892403779485
30
0
0
POINT
5
103
100
AcDbEntity
8
0
100
AcDbPoint
10
294.99881758589282
20
-0.00039410892403779485
30
0
0
LWPOLYLINE
5
104
100
AcDbEntity
8
0
100
AcDbPolyline
90
8
70
1
43
0.0
10
198.19881899686123
20
-131.80039410892402
10
391.7988151987268
20
-131.80039410892411
42
0.41421356237309609
10
401.79881519872674
20
-121.80039410892412
10
401.7988151987268
20
61.799427918490508
42
0.41421356237309503
10
391.7988151987268
20
71.799427918490508
10
198.19881997305885
20
71.799427918490579
42
0.41421366314746466
10
188.19881899686322
20
61.799416408539756
10
188.19881899686123
20
-121.80039410892402
42
0.41421356237309609
0
LWPOLYLINE
5
105
100
AcDbEntity
8
0
100
AcDbPolyline
90
8
70
1
43
0.0
10
374.99882361418855
20
-30.000395989984714
42
1.0000002438287461
10
214.99882361419759
20
-30.000432958935157
10
234.99882361073679
20
-30.00043295893515
42
-0.13165263638073083
10
243.03729675450904
20
-0.00039950971288504888
10
286.32715742420987
20
-24.993808308110452
42
-0.57735026131278488
10
303.67048781490013
20
-24.993804862598843
10
346.96034519594917
20
-0.0003903680891470529
42
-0.13165252441858388
10
354.99882361765231
20
-30.000395989984714
0
LWPOLYLINE
5
106
100
AcDbEntity
8
0
100
AcDbPolyline
90
4
70
1
43
0.0
10
330.72381758589279
20
-77.57539410892403
10
259.27381758589286
20
-77.575394108924016
10
259.27381758589286
20
-52.425394108924039
10
330.72381758589279
20
-52.425394108924046
0
CIRCLE
5
107
100
AcDbEntity
8
0
100
AcDbCircle
10
294.99881758589282
20
-100.00039410892404
30
0
40
10
210
0
220
0
230
1
0
CIRCLE
5
108
100
AcDbEntity
8
0
100
AcDbCircle
10
332.5238175858928
20
-49.025394108924033
30
0
40
1.5000000000000009
210
0
220
0
230
1
0
CIRCLE
5
109
100
AcDbEntity
8
0
100
AcDbCircle
10
332.5238175858928
20
-80.375394108924013
30
0
40
1.5000000000000018
210
0
220
0
230
1
0
CIRCLE
5
110
100
AcDbEntity
8
0
100
AcDbCircle
10
257.47381758589285
20
-80.375394108924013
30
0
40
1.4999999999999942
210
0
220
0
230
1
0
CIRCLE
5
111
100
AcDbEntity
8
0
100
AcDbCircle
10
257.47381758589285
20
-49.025394108924033
30
0
40
1.4999999999999993
210
0
220
0
230
1
0
LINE
5
112
100
AcDbEntity
8
1
100
AcDbLine
10
187.99881997753147
20
53.499602671496227
30
0
11
188.19881899686317
21
53.399603165613101
31
0
0
LINE
5
113
100
AcDbEntity
8
1
100
AcDbLine
10
188.19881899686317
20
53.399603165613101
30
0
11
187.99881997753147
21
53.499602671496227
31
0
0
ENDSEC
0
SECTION
2
OBJECTS
0
DICTIONARY
5
C
100
AcDbDictionary
3
ACAD_GROUP
350
D
3
ACAD_MLINESTYLE
350
17
0
DICTIONARY
5
D
100
AcDbDictionary
0
DICTIONARY
5
1A
330
C
100
AcDbDictionary
0
DICTIONARY
5
17
100
AcDbDictionary
0
ENDSEC
0
EOF
